<svg width="1617" height="530" viewBox="0 0 1617 530" fill="none" xmlns="http://www.w3.org/2000/svg">
<path d="M363.898 239.228C366.203 273.799 372.017 308.646 377.607 342.805C384.568 385.346 388.013 431.785 400.455 473.038C404.744 487.261 418.176 515.535 435.869 516.83C471.221 519.417 477.345 481.562 487.467 454.57C512.308 388.328 535.523 324.598 542.873 253.699C547.904 205.176 551.735 155.153 548.585 106.33C547.516 89.7633 546.95 63.6236 541.35 48.0678C533.152 25.2959 535.257 96.2169 535.257 120.419C535.257 161.056 530.101 203.622 551.06 240.18C561.401 258.216 575.308 277.906 598.47 276.927C609.134 276.477 614.739 273.016 619.794 263.028C637.522 228.006 644.48 186.557 654.828 148.979C661.362 125.249 669.412 101.85 674.629 77.77C677.921 62.5778 675.541 32.6102 684.53 19.1272C691.295 8.97938 686.053 43.4877 686.053 55.6838C686.053 92.8116 686.053 129.939 686.053 167.067C686.053 253.999 681.895 342.068 687.576 428.866C689.139 452.741 692.279 476.448 695.954 500.075C696.11 501.075 697.813 526.222 701.666 527.873C707.51 530.378 703.698 515.129 702.808 508.833C698.801 480.46 691.954 452.323 686.053 424.296" stroke="black" stroke-width="3" stroke-linecap="round"/>
<path d="M672.345 26.743C678.442 3.57137 745.04 3.60805 763.355 11.1303C778.487 17.3453 774.734 51.6508 774.97 63.2996C775.768 102.841 775.687 142.568 775.16 182.109C774.496 231.934 773.758 296.077 711.567 297.49C702.518 297.696 672.834 302.469 679.77 283.972C687.631 263.01 734.967 282.622 743.363 291.588C802.577 354.816 825.144 459.49 917.959 487.128C983.899 506.763 1082.2 482.923 1088.94 400.687C1093.08 350.149 1077.72 299.103 1060.38 252.366C1059.25 249.331 1043.1 217.411 1047.05 211.049C1053.85 200.091 1063.92 230.848 1069.9 242.275C1088.16 277.168 1101.83 311.903 1137.3 333.285C1159.16 346.464 1202.02 360.949 1227.55 349.279C1265.98 331.709 1283.78 266.306 1293.81 230.089C1303.33 195.704 1314.38 152.751 1307.9 116.611C1307.77 115.899 1306.07 114.564 1306.18 115.279C1309.48 135.529 1317.64 156.061 1325.41 174.873C1344.82 221.858 1374.36 264.794 1420.04 289.684C1471.1 317.505 1534.71 319.831 1591.59 317.292C1599.76 316.927 1619.46 312.977 1613.87 307.01C1597.75 289.816 1549.31 288.686 1531.04 287.59C1377.41 278.371 1223.8 307.368 1070.85 316.53C824.136 331.308 575.884 324.908 328.865 324.908C257.656 324.908 186.441 325.757 115.237 324.908C78.3697 324.468 -20.1509 329.993 6.5193 304.535C16.4383 295.067 30.0314 290.08 42.8855 285.305C92.632 266.823 207.16 238.39 251.182 227.043C369.157 196.634 486.68 164.657 604.562 133.938C756.615 94.3138 912.439 74.0432 1065.71 40.0709C1095.36 33.4978 1134.46 23.943 1164.72 14.1767C1172.23 11.7522 1192.99 6.06467 1185.66 3.13354C1179.9 0.828287 1170.03 2.75274 1163.95 2.75274C1151.14 2.75274 1175.42 10.9599 1179.57 13.0343" stroke="black" stroke-width="3" stroke-linecap="round"/>
</svg>
